<mxfile host="app.diagrams.net" modified="2022-06-24T08:59:55.378Z" agent="5.0 (Macintosh; Intel Mac OS X 10_15_7) AppleWebKit/605.1.15 (KHTML, like Gecko) Version/15.3 Safari/605.1.15" etag="-SguQOxfAlxD-vZuXqQ2" version="20.0.1" type="github">
  <diagram id="C5RBs43oDa-KdzZeNtuy" name="Page-1">
    <mxGraphModel dx="1258" dy="729" grid="1" gridSize="10" guides="1" tooltips="1" connect="1" arrows="1" fold="1" page="1" pageScale="1" pageWidth="827" pageHeight="1169" background="#ffffff" math="0" shadow="0">
      <root>
        <mxCell id="WIyWlLk6GJQsqaUBKTNV-0" />
        <mxCell id="WIyWlLk6GJQsqaUBKTNV-1" parent="WIyWlLk6GJQsqaUBKTNV-0" />
        <mxCell id="pAJpSPXuL_mx-AU2gsYE-6" value="" style="rounded=0;whiteSpace=wrap;html=1;fontSize=15;dashed=1;" vertex="1" parent="WIyWlLk6GJQsqaUBKTNV-1">
          <mxGeometry x="850" y="196" width="150" height="284" as="geometry" />
        </mxCell>
        <mxCell id="U5XGqWJioJr3O-M73j0z-75" value="" style="rounded=0;whiteSpace=wrap;html=1;fontSize=15;dashed=1;" parent="WIyWlLk6GJQsqaUBKTNV-1" vertex="1">
          <mxGeometry x="300" y="450" width="720" height="130" as="geometry" />
        </mxCell>
        <mxCell id="U5XGqWJioJr3O-M73j0z-64" value="" style="rounded=0;whiteSpace=wrap;html=1;fontSize=15;dashed=1;" parent="WIyWlLk6GJQsqaUBKTNV-1" vertex="1">
          <mxGeometry x="1183" y="172.5" width="154" height="140" as="geometry" />
        </mxCell>
        <mxCell id="U5XGqWJioJr3O-M73j0z-62" value="" style="rounded=0;whiteSpace=wrap;html=1;fontSize=15;dashed=1;" parent="WIyWlLk6GJQsqaUBKTNV-1" vertex="1">
          <mxGeometry x="1183" y="62.5" width="154" height="95" as="geometry" />
        </mxCell>
        <mxCell id="U5XGqWJioJr3O-M73j0z-60" value="" style="rounded=0;whiteSpace=wrap;html=1;fontSize=15;dashed=1;" parent="WIyWlLk6GJQsqaUBKTNV-1" vertex="1">
          <mxGeometry x="480" y="196" width="360" height="230" as="geometry" />
        </mxCell>
        <mxCell id="U5XGqWJioJr3O-M73j0z-59" value="" style="rounded=0;whiteSpace=wrap;html=1;fontSize=15;dashed=1;" parent="WIyWlLk6GJQsqaUBKTNV-1" vertex="1">
          <mxGeometry x="300" y="196" width="160" height="230" as="geometry" />
        </mxCell>
        <mxCell id="U5XGqWJioJr3O-M73j0z-58" value="" style="rounded=0;whiteSpace=wrap;html=1;fontSize=15;dashed=1;" parent="WIyWlLk6GJQsqaUBKTNV-1" vertex="1">
          <mxGeometry x="1012" y="196" width="150" height="284" as="geometry" />
        </mxCell>
        <mxCell id="U5XGqWJioJr3O-M73j0z-57" value="" style="rounded=0;whiteSpace=wrap;html=1;fontSize=15;dashed=1;" parent="WIyWlLk6GJQsqaUBKTNV-1" vertex="1">
          <mxGeometry x="610" y="60" width="410" height="110" as="geometry" />
        </mxCell>
        <mxCell id="U5XGqWJioJr3O-M73j0z-55" value="" style="rounded=0;whiteSpace=wrap;html=1;fontSize=15;dashed=1;" parent="WIyWlLk6GJQsqaUBKTNV-1" vertex="1">
          <mxGeometry x="300" y="60" width="300" height="110" as="geometry" />
        </mxCell>
        <mxCell id="U5XGqWJioJr3O-M73j0z-53" value="" style="rounded=0;whiteSpace=wrap;html=1;fontSize=15;dashed=1;" parent="WIyWlLk6GJQsqaUBKTNV-1" vertex="1">
          <mxGeometry x="117" y="60" width="150" height="230" as="geometry" />
        </mxCell>
        <mxCell id="U5XGqWJioJr3O-M73j0z-52" value="" style="rounded=0;whiteSpace=wrap;html=1;fontSize=15;dashed=1;" parent="WIyWlLk6GJQsqaUBKTNV-1" vertex="1">
          <mxGeometry x="117" y="350" width="153" height="240" as="geometry" />
        </mxCell>
        <mxCell id="U5XGqWJioJr3O-M73j0z-0" value="HDFS" style="rounded=1;whiteSpace=wrap;html=1;fontSize=15;fillColor=#bac8d3;strokeColor=#23445d;" parent="WIyWlLk6GJQsqaUBKTNV-1" vertex="1">
          <mxGeometry x="1186" y="635" width="110" height="40" as="geometry" />
        </mxCell>
        <mxCell id="U5XGqWJioJr3O-M73j0z-2" value="" style="endArrow=none;html=1;rounded=0;fontSize=15;" parent="WIyWlLk6GJQsqaUBKTNV-1" edge="1">
          <mxGeometry width="50" height="50" relative="1" as="geometry">
            <mxPoint x="300" y="439" as="sourcePoint" />
            <mxPoint x="1020" y="439" as="targetPoint" />
          </mxGeometry>
        </mxCell>
        <mxCell id="U5XGqWJioJr3O-M73j0z-3" value="Storage" style="text;html=1;strokeColor=none;fillColor=none;align=center;verticalAlign=middle;whiteSpace=wrap;rounded=0;fontSize=15;" parent="WIyWlLk6GJQsqaUBKTNV-1" vertex="1">
          <mxGeometry x="640" y="450" width="60" height="30" as="geometry" />
        </mxCell>
        <mxCell id="U5XGqWJioJr3O-M73j0z-4" value="Batch calculation" style="text;html=1;strokeColor=none;fillColor=none;align=center;verticalAlign=middle;whiteSpace=wrap;rounded=0;fontSize=15;" parent="WIyWlLk6GJQsqaUBKTNV-1" vertex="1">
          <mxGeometry x="322.5" y="193" width="125" height="30" as="geometry" />
        </mxCell>
        <mxCell id="U5XGqWJioJr3O-M73j0z-8" value="MinIO" style="rounded=1;whiteSpace=wrap;html=1;fontSize=15;fillColor=#bac8d3;strokeColor=#23445d;" parent="WIyWlLk6GJQsqaUBKTNV-1" vertex="1">
          <mxGeometry x="1057.5" y="635" width="110" height="40" as="geometry" />
        </mxCell>
        <mxCell id="U5XGqWJioJr3O-M73j0z-9" value="MR" style="rounded=1;whiteSpace=wrap;html=1;fontSize=15;fillColor=#b1ddf0;strokeColor=#10739e;" parent="WIyWlLk6GJQsqaUBKTNV-1" vertex="1">
          <mxGeometry x="330" y="223" width="110" height="40" as="geometry" />
        </mxCell>
        <mxCell id="U5XGqWJioJr3O-M73j0z-11" value="HIVE" style="rounded=1;whiteSpace=wrap;html=1;fontSize=15;fillColor=#bac8d3;strokeColor=#23445d;" parent="WIyWlLk6GJQsqaUBKTNV-1" vertex="1">
          <mxGeometry x="335" y="488" width="110" height="40" as="geometry" />
        </mxCell>
        <mxCell id="U5XGqWJioJr3O-M73j0z-12" value="Tez" style="rounded=1;whiteSpace=wrap;html=1;fontSize=15;fillColor=#b1ddf0;strokeColor=#10739e;" parent="WIyWlLk6GJQsqaUBKTNV-1" vertex="1">
          <mxGeometry x="330" y="273" width="110" height="40" as="geometry" />
        </mxCell>
        <mxCell id="U5XGqWJioJr3O-M73j0z-13" value="Spark" style="rounded=1;whiteSpace=wrap;html=1;fontSize=15;fillColor=#b1ddf0;strokeColor=#10739e;" parent="WIyWlLk6GJQsqaUBKTNV-1" vertex="1">
          <mxGeometry x="330" y="323" width="110" height="40" as="geometry" />
        </mxCell>
        <mxCell id="U5XGqWJioJr3O-M73j0z-14" value="Stream calculation" style="text;html=1;strokeColor=none;fillColor=none;align=center;verticalAlign=middle;whiteSpace=wrap;rounded=0;fontSize=15;" parent="WIyWlLk6GJQsqaUBKTNV-1" vertex="1">
          <mxGeometry x="620" y="206" width="130" height="30" as="geometry" />
        </mxCell>
        <mxCell id="U5XGqWJioJr3O-M73j0z-17" value="Spark Streaming" style="rounded=1;whiteSpace=wrap;html=1;fontSize=15;fillColor=#b1ddf0;strokeColor=#10739e;" parent="WIyWlLk6GJQsqaUBKTNV-1" vertex="1">
          <mxGeometry x="490" y="246" width="130" height="40" as="geometry" />
        </mxCell>
        <mxCell id="U5XGqWJioJr3O-M73j0z-18" value="" style="endArrow=none;html=1;rounded=0;fontSize=15;" parent="WIyWlLk6GJQsqaUBKTNV-1" edge="1">
          <mxGeometry width="50" height="50" relative="1" as="geometry">
            <mxPoint x="298" y="183.5" as="sourcePoint" />
            <mxPoint x="1020" y="184" as="targetPoint" />
          </mxGeometry>
        </mxCell>
        <mxCell id="U5XGqWJioJr3O-M73j0z-19" value="Presto" style="rounded=1;whiteSpace=wrap;html=1;fontSize=15;fillColor=#d5e8d4;strokeColor=#82b366;" parent="WIyWlLk6GJQsqaUBKTNV-1" vertex="1">
          <mxGeometry x="325" y="110" width="75" height="40" as="geometry" />
        </mxCell>
        <mxCell id="U5XGqWJioJr3O-M73j0z-20" value="HUDI" style="rounded=1;whiteSpace=wrap;html=1;fontSize=15;fillColor=#bac8d3;strokeColor=#23445d;" parent="WIyWlLk6GJQsqaUBKTNV-1" vertex="1">
          <mxGeometry x="473" y="488" width="110" height="40" as="geometry" />
        </mxCell>
        <mxCell id="U5XGqWJioJr3O-M73j0z-21" value="Resource Schedule" style="text;html=1;strokeColor=none;fillColor=none;align=center;verticalAlign=middle;whiteSpace=wrap;rounded=0;fontSize=15;" parent="WIyWlLk6GJQsqaUBKTNV-1" vertex="1">
          <mxGeometry x="121.5" y="370" width="145.5" height="30" as="geometry" />
        </mxCell>
        <mxCell id="U5XGqWJioJr3O-M73j0z-22" value="Yarn" style="rounded=1;whiteSpace=wrap;html=1;fontSize=15;fillColor=#dae8fc;strokeColor=#6c8ebf;" parent="WIyWlLk6GJQsqaUBKTNV-1" vertex="1">
          <mxGeometry x="137" y="420" width="110" height="40" as="geometry" />
        </mxCell>
        <mxCell id="U5XGqWJioJr3O-M73j0z-23" value="DCE" style="rounded=1;whiteSpace=wrap;html=1;fontSize=15;fillColor=#dae8fc;strokeColor=#6c8ebf;" parent="WIyWlLk6GJQsqaUBKTNV-1" vertex="1">
          <mxGeometry x="137" y="480" width="110" height="40" as="geometry" />
        </mxCell>
        <mxCell id="U5XGqWJioJr3O-M73j0z-24" value="Ad-Hoc enquiry" style="text;html=1;strokeColor=none;fillColor=none;align=center;verticalAlign=middle;whiteSpace=wrap;rounded=0;fontSize=15;" parent="WIyWlLk6GJQsqaUBKTNV-1" vertex="1">
          <mxGeometry x="415" y="70" width="125" height="30" as="geometry" />
        </mxCell>
        <mxCell id="U5XGqWJioJr3O-M73j0z-25" value="Stream Platform" style="rounded=1;whiteSpace=wrap;html=1;fontSize=15;fillColor=#d5e8d4;strokeColor=#82b366;" parent="WIyWlLk6GJQsqaUBKTNV-1" vertex="1">
          <mxGeometry x="410" y="110" width="90" height="40" as="geometry" />
        </mxCell>
        <mxCell id="U5XGqWJioJr3O-M73j0z-27" value="Task&amp;nbsp;Schedule" style="text;html=1;strokeColor=none;fillColor=none;align=center;verticalAlign=middle;whiteSpace=wrap;rounded=0;fontSize=15;" parent="WIyWlLk6GJQsqaUBKTNV-1" vertex="1">
          <mxGeometry x="145.25" y="72.5" width="98" height="30" as="geometry" />
        </mxCell>
        <mxCell id="U5XGqWJioJr3O-M73j0z-29" value="DataIn" style="rounded=1;whiteSpace=wrap;html=1;fontSize=15;fillColor=#dae8fc;strokeColor=#6c8ebf;" parent="WIyWlLk6GJQsqaUBKTNV-1" vertex="1">
          <mxGeometry x="137" y="125" width="110" height="40" as="geometry" />
        </mxCell>
        <mxCell id="U5XGqWJioJr3O-M73j0z-30" value="DolphinSchedule" style="rounded=1;whiteSpace=wrap;html=1;fontSize=15;fillColor=#dae8fc;strokeColor=#6c8ebf;" parent="WIyWlLk6GJQsqaUBKTNV-1" vertex="1">
          <mxGeometry x="137" y="202.5" width="110" height="40" as="geometry" />
        </mxCell>
        <mxCell id="U5XGqWJioJr3O-M73j0z-31" value="Monitor" style="text;html=1;strokeColor=none;fillColor=none;align=center;verticalAlign=middle;whiteSpace=wrap;rounded=0;fontSize=15;" parent="WIyWlLk6GJQsqaUBKTNV-1" vertex="1">
          <mxGeometry x="1220" y="67.5" width="80" height="30" as="geometry" />
        </mxCell>
        <mxCell id="U5XGqWJioJr3O-M73j0z-32" value="Prometheus" style="rounded=1;whiteSpace=wrap;html=1;fontSize=15;fillColor=#dae8fc;strokeColor=#6c8ebf;" parent="WIyWlLk6GJQsqaUBKTNV-1" vertex="1">
          <mxGeometry x="1207.5" y="102.5" width="110" height="40" as="geometry" />
        </mxCell>
        <mxCell id="U5XGqWJioJr3O-M73j0z-33" value="Operation+development&lt;br&gt;platform" style="text;html=1;strokeColor=none;fillColor=none;align=center;verticalAlign=middle;whiteSpace=wrap;rounded=0;fontSize=15;" parent="WIyWlLk6GJQsqaUBKTNV-1" vertex="1">
          <mxGeometry x="772.5" y="70" width="65" height="30" as="geometry" />
        </mxCell>
        <mxCell id="U5XGqWJioJr3O-M73j0z-34" value="DCS" style="rounded=1;whiteSpace=wrap;html=1;fontSize=15;fillColor=#d5e8d4;strokeColor=#82b366;" parent="WIyWlLk6GJQsqaUBKTNV-1" vertex="1">
          <mxGeometry x="620" y="110" width="110" height="40" as="geometry" />
        </mxCell>
        <mxCell id="U5XGqWJioJr3O-M73j0z-35" value="GitLab" style="rounded=1;whiteSpace=wrap;html=1;fontSize=15;fillColor=#d5e8d4;strokeColor=#82b366;" parent="WIyWlLk6GJQsqaUBKTNV-1" vertex="1">
          <mxGeometry x="750" y="110" width="110" height="40" as="geometry" />
        </mxCell>
        <mxCell id="U5XGqWJioJr3O-M73j0z-38" value="CDH" style="rounded=1;whiteSpace=wrap;html=1;fontSize=15;fillColor=#d5e8d4;strokeColor=#82b366;" parent="WIyWlLk6GJQsqaUBKTNV-1" vertex="1">
          <mxGeometry x="880" y="110" width="110" height="40" as="geometry" />
        </mxCell>
        <mxCell id="U5XGqWJioJr3O-M73j0z-39" value="ElasticSearch" style="rounded=1;whiteSpace=wrap;html=1;fontSize=15;fillColor=#ffe6cc;strokeColor=#d79b00;" parent="WIyWlLk6GJQsqaUBKTNV-1" vertex="1">
          <mxGeometry x="1040" y="320" width="110" height="40" as="geometry" />
        </mxCell>
        <mxCell id="U5XGqWJioJr3O-M73j0z-40" value="HBASE" style="rounded=1;whiteSpace=wrap;html=1;fontSize=15;fillColor=#ffe6cc;strokeColor=#d79b00;" parent="WIyWlLk6GJQsqaUBKTNV-1" vertex="1">
          <mxGeometry x="1040" y="390" width="110" height="37" as="geometry" />
        </mxCell>
        <mxCell id="U5XGqWJioJr3O-M73j0z-41" value="ClickHouse" style="rounded=1;whiteSpace=wrap;html=1;fontSize=15;fillColor=#ffe6cc;strokeColor=#d79b00;" parent="WIyWlLk6GJQsqaUBKTNV-1" vertex="1">
          <mxGeometry x="1040" y="433" width="110" height="40" as="geometry" />
        </mxCell>
        <mxCell id="U5XGqWJioJr3O-M73j0z-44" value="DB" style="text;html=1;strokeColor=none;fillColor=none;align=center;verticalAlign=middle;whiteSpace=wrap;rounded=0;fontSize=15;" parent="WIyWlLk6GJQsqaUBKTNV-1" vertex="1">
          <mxGeometry x="1057.5" y="196" width="60" height="30" as="geometry" />
        </mxCell>
        <mxCell id="U5XGqWJioJr3O-M73j0z-45" value="" style="rounded=0;whiteSpace=wrap;html=1;fontSize=15;dashed=1;" parent="WIyWlLk6GJQsqaUBKTNV-1" vertex="1">
          <mxGeometry x="490" y="306" width="330" height="80" as="geometry" />
        </mxCell>
        <mxCell id="U5XGqWJioJr3O-M73j0z-46" value="Flink Dashboard" style="rounded=1;whiteSpace=wrap;html=1;fontSize=15;fillColor=#b1ddf0;strokeColor=#10739e;" parent="WIyWlLk6GJQsqaUBKTNV-1" vertex="1">
          <mxGeometry x="500" y="336" width="90" height="40" as="geometry" />
        </mxCell>
        <mxCell id="U5XGqWJioJr3O-M73j0z-47" value="Flink SQL Client" style="rounded=1;whiteSpace=wrap;html=1;fontSize=15;fillColor=#b1ddf0;strokeColor=#10739e;" parent="WIyWlLk6GJQsqaUBKTNV-1" vertex="1">
          <mxGeometry x="610" y="336" width="90" height="40" as="geometry" />
        </mxCell>
        <mxCell id="U5XGqWJioJr3O-M73j0z-48" value="Flink &amp;nbsp;Connector" style="rounded=1;whiteSpace=wrap;html=1;fontSize=15;fillColor=#b1ddf0;strokeColor=#10739e;" parent="WIyWlLk6GJQsqaUBKTNV-1" vertex="1">
          <mxGeometry x="717" y="336" width="93" height="40" as="geometry" />
        </mxCell>
        <mxCell id="U5XGqWJioJr3O-M73j0z-49" value="Zookeeper" style="rounded=1;whiteSpace=wrap;html=1;fontSize=15;fillColor=#f8cecc;strokeColor=#b85450;" parent="WIyWlLk6GJQsqaUBKTNV-1" vertex="1">
          <mxGeometry x="1209.5" y="216.5" width="110" height="40" as="geometry" />
        </mxCell>
        <mxCell id="U5XGqWJioJr3O-M73j0z-50" value="&lt;span style=&quot;font-size: 16px; caret-color: rgb(33, 37, 41); color: rgb(33, 37, 41); font-family: -apple-system, BlinkMacSystemFont, &amp;quot;Segoe UI&amp;quot;, Roboto, &amp;quot;Helvetica Neue&amp;quot;, Arial, sans-serif, &amp;quot;Apple Color Emoji&amp;quot;, &amp;quot;Segoe UI Emoji&amp;quot;, &amp;quot;Segoe UI Symbol&amp;quot;, &amp;quot;Noto Color Emoji&amp;quot;; text-align: left; background-color: rgb(255, 255, 255);&quot;&gt;Distributed &lt;br&gt;Coordination&lt;/span&gt;" style="text;html=1;strokeColor=none;fillColor=none;align=center;verticalAlign=middle;whiteSpace=wrap;rounded=0;fontSize=15;" parent="WIyWlLk6GJQsqaUBKTNV-1" vertex="1">
          <mxGeometry x="1159.75" y="182.5" width="205.5" height="30" as="geometry" />
        </mxCell>
        <mxCell id="U5XGqWJioJr3O-M73j0z-65" value="Etcd" style="rounded=1;whiteSpace=wrap;html=1;fontSize=15;fillColor=#f8cecc;strokeColor=#b85450;" parent="WIyWlLk6GJQsqaUBKTNV-1" vertex="1">
          <mxGeometry x="1209.5" y="262.5" width="107.5" height="40" as="geometry" />
        </mxCell>
        <mxCell id="U5XGqWJioJr3O-M73j0z-66" value="" style="rounded=0;whiteSpace=wrap;html=1;fontSize=15;dashed=1;" parent="WIyWlLk6GJQsqaUBKTNV-1" vertex="1">
          <mxGeometry x="1183" y="330" width="160" height="90" as="geometry" />
        </mxCell>
        <mxCell id="U5XGqWJioJr3O-M73j0z-67" value="Kerberos" style="rounded=1;whiteSpace=wrap;html=1;fontSize=15;fillColor=#dae8fc;strokeColor=#6c8ebf;" parent="WIyWlLk6GJQsqaUBKTNV-1" vertex="1">
          <mxGeometry x="1207.5" y="370" width="110" height="40" as="geometry" />
        </mxCell>
        <mxCell id="U5XGqWJioJr3O-M73j0z-68" value="Security" style="text;html=1;strokeColor=none;fillColor=none;align=center;verticalAlign=middle;whiteSpace=wrap;rounded=0;fontSize=15;" parent="WIyWlLk6GJQsqaUBKTNV-1" vertex="1">
          <mxGeometry x="1202.5" y="340" width="115" height="30" as="geometry" />
        </mxCell>
        <mxCell id="U5XGqWJioJr3O-M73j0z-69" value="Hue" style="rounded=1;whiteSpace=wrap;html=1;fontSize=15;fillColor=#d5e8d4;strokeColor=#82b366;" parent="WIyWlLk6GJQsqaUBKTNV-1" vertex="1">
          <mxGeometry x="510" y="110" width="70" height="40" as="geometry" />
        </mxCell>
        <mxCell id="U5XGqWJioJr3O-M73j0z-70" value="" style="rounded=0;whiteSpace=wrap;html=1;fontSize=15;dashed=1;" parent="WIyWlLk6GJQsqaUBKTNV-1" vertex="1">
          <mxGeometry x="1184.25" y="435" width="158.75" height="145" as="geometry" />
        </mxCell>
        <mxCell id="U5XGqWJioJr3O-M73j0z-71" value="Filebeat" style="rounded=1;whiteSpace=wrap;html=1;fontSize=15;fillColor=#d0cee2;strokeColor=#56517e;" parent="WIyWlLk6GJQsqaUBKTNV-1" vertex="1">
          <mxGeometry x="1208.75" y="485" width="110" height="40" as="geometry" />
        </mxCell>
        <mxCell id="U5XGqWJioJr3O-M73j0z-72" value="Audit Logs" style="text;html=1;strokeColor=none;fillColor=none;align=center;verticalAlign=middle;whiteSpace=wrap;rounded=0;fontSize=15;" parent="WIyWlLk6GJQsqaUBKTNV-1" vertex="1">
          <mxGeometry x="1203.75" y="445" width="115" height="30" as="geometry" />
        </mxCell>
        <mxCell id="U5XGqWJioJr3O-M73j0z-73" value="Kibana" style="rounded=1;whiteSpace=wrap;html=1;fontSize=15;fillColor=#d0cee2;strokeColor=#56517e;" parent="WIyWlLk6GJQsqaUBKTNV-1" vertex="1">
          <mxGeometry x="1208.75" y="535" width="110" height="40" as="geometry" />
        </mxCell>
        <mxCell id="U5XGqWJioJr3O-M73j0z-74" value="Flink" style="text;html=1;strokeColor=none;fillColor=none;align=center;verticalAlign=middle;whiteSpace=wrap;rounded=0;fontSize=15;" parent="WIyWlLk6GJQsqaUBKTNV-1" vertex="1">
          <mxGeometry x="610" y="301" width="70" height="30" as="geometry" />
        </mxCell>
        <mxCell id="U5XGqWJioJr3O-M73j0z-76" value="FLink" style="rounded=1;whiteSpace=wrap;html=1;fontSize=15;fillColor=#b1ddf0;strokeColor=#10739e;" parent="WIyWlLk6GJQsqaUBKTNV-1" vertex="1">
          <mxGeometry x="330" y="373" width="110" height="40" as="geometry" />
        </mxCell>
        <mxCell id="U5XGqWJioJr3O-M73j0z-77" value="Apache Stream Framework" style="text;html=1;strokeColor=none;fillColor=none;align=center;verticalAlign=middle;whiteSpace=wrap;rounded=0;dashed=1;fontSize=15;" parent="WIyWlLk6GJQsqaUBKTNV-1" vertex="1">
          <mxGeometry x="572.5" y="10" width="200" height="30" as="geometry" />
        </mxCell>
        <mxCell id="U5XGqWJioJr3O-M73j0z-119" value="create oracle_cdc_redolog_order(&lt;br&gt;&amp;nbsp;orderId archer(32)&lt;br&gt;) with (&lt;br&gt;&quot;url&quot;: &quot;thin:&quot;&lt;br&gt;&lt;br&gt;);&lt;br&gt;&lt;br&gt;&lt;br&gt;create table kafka_table(&lt;br&gt;orderId&lt;br&gt;) with (&lt;br&gt;&quot;bootstrap&quot;:&amp;nbsp;&lt;br&gt;);&lt;br&gt;&lt;br&gt;&lt;br&gt;insert into kafka_table from oracle_cdc_redolog_order" style="text;html=1;strokeColor=none;fillColor=none;align=left;verticalAlign=middle;whiteSpace=wrap;rounded=0;dashed=1;fontSize=15;" parent="WIyWlLk6GJQsqaUBKTNV-1" vertex="1">
          <mxGeometry x="504" y="1480" width="406" height="300" as="geometry" />
        </mxCell>
        <mxCell id="U5XGqWJioJr3O-M73j0z-122" value="" style="shape=flexArrow;endArrow=classic;html=1;rounded=0;fontSize=15;width=10;endSize=9.67;" parent="WIyWlLk6GJQsqaUBKTNV-1" edge="1">
          <mxGeometry width="50" height="50" relative="1" as="geometry">
            <mxPoint x="940" y="1650" as="sourcePoint" />
            <mxPoint x="1020" y="1650" as="targetPoint" />
          </mxGeometry>
        </mxCell>
        <mxCell id="U5XGqWJioJr3O-M73j0z-123" value="FlinkClient&lt;br&gt;parse sql&lt;br&gt;&lt;br&gt;transform&amp;nbsp;&lt;br&gt;DAG" style="rounded=1;whiteSpace=wrap;html=1;dashed=1;fontSize=15;strokeWidth=0;" parent="WIyWlLk6GJQsqaUBKTNV-1" vertex="1">
          <mxGeometry x="1064" y="1610" width="120" height="60" as="geometry" />
        </mxCell>
        <mxCell id="U5XGqWJioJr3O-M73j0z-124" value="" style="shape=flexArrow;endArrow=classic;html=1;rounded=0;fontSize=15;width=10;endSize=9.67;" parent="WIyWlLk6GJQsqaUBKTNV-1" edge="1">
          <mxGeometry width="50" height="50" relative="1" as="geometry">
            <mxPoint x="1207" y="1650" as="sourcePoint" />
            <mxPoint x="1287" y="1650" as="targetPoint" />
          </mxGeometry>
        </mxCell>
        <mxCell id="U5XGqWJioJr3O-M73j0z-125" value="Flink Cluster" style="rounded=1;whiteSpace=wrap;html=1;dashed=1;fontSize=15;strokeWidth=0;" parent="WIyWlLk6GJQsqaUBKTNV-1" vertex="1">
          <mxGeometry x="1330" y="1620" width="120" height="60" as="geometry" />
        </mxCell>
        <mxCell id="U5XGqWJioJr3O-M73j0z-127" value="Standalone" style="rounded=1;whiteSpace=wrap;html=1;fontSize=15;fillColor=#dae8fc;strokeColor=#6c8ebf;" parent="WIyWlLk6GJQsqaUBKTNV-1" vertex="1">
          <mxGeometry x="137" y="535" width="110" height="40" as="geometry" />
        </mxCell>
        <mxCell id="pAJpSPXuL_mx-AU2gsYE-0" value="" style="rounded=0;whiteSpace=wrap;html=1;fontSize=15;dashed=1;" vertex="1" parent="WIyWlLk6GJQsqaUBKTNV-1">
          <mxGeometry x="300" y="590" width="720" height="130" as="geometry" />
        </mxCell>
        <mxCell id="pAJpSPXuL_mx-AU2gsYE-1" value="Infra" style="text;html=1;strokeColor=none;fillColor=none;align=center;verticalAlign=middle;whiteSpace=wrap;rounded=0;fontSize=15;" vertex="1" parent="WIyWlLk6GJQsqaUBKTNV-1">
          <mxGeometry x="635" y="600" width="60" height="30" as="geometry" />
        </mxCell>
        <mxCell id="pAJpSPXuL_mx-AU2gsYE-3" value="Oracle" style="rounded=1;whiteSpace=wrap;html=1;fontSize=15;fillColor=#ffe6cc;strokeColor=#d79b00;" vertex="1" parent="WIyWlLk6GJQsqaUBKTNV-1">
          <mxGeometry x="1040" y="221" width="110" height="40" as="geometry" />
        </mxCell>
        <mxCell id="pAJpSPXuL_mx-AU2gsYE-4" value="&lt;b&gt;...&lt;/b&gt;" style="text;html=1;strokeColor=none;fillColor=none;align=center;verticalAlign=middle;whiteSpace=wrap;rounded=0;" vertex="1" parent="WIyWlLk6GJQsqaUBKTNV-1">
          <mxGeometry x="1065" y="359" width="60" height="30" as="geometry" />
        </mxCell>
        <mxCell id="pAJpSPXuL_mx-AU2gsYE-5" value="MySQL" style="rounded=1;whiteSpace=wrap;html=1;fontSize=15;fillColor=#ffe6cc;strokeColor=#d79b00;" vertex="1" parent="WIyWlLk6GJQsqaUBKTNV-1">
          <mxGeometry x="1040" y="272.5" width="110" height="40" as="geometry" />
        </mxCell>
        <mxCell id="pAJpSPXuL_mx-AU2gsYE-7" value="MQ" style="text;html=1;strokeColor=none;fillColor=none;align=center;verticalAlign=middle;whiteSpace=wrap;rounded=0;fontSize=15;" vertex="1" parent="WIyWlLk6GJQsqaUBKTNV-1">
          <mxGeometry x="895" y="196" width="60" height="30" as="geometry" />
        </mxCell>
        <mxCell id="pAJpSPXuL_mx-AU2gsYE-8" value="Pulsar" style="rounded=1;whiteSpace=wrap;html=1;fontSize=15;fillColor=#ffe6cc;strokeColor=#d79b00;" vertex="1" parent="WIyWlLk6GJQsqaUBKTNV-1">
          <mxGeometry x="870" y="376" width="110" height="40" as="geometry" />
        </mxCell>
        <mxCell id="pAJpSPXuL_mx-AU2gsYE-9" value="Kafka" style="rounded=1;whiteSpace=wrap;html=1;fontSize=15;fillColor=#ffe6cc;strokeColor=#d79b00;" vertex="1" parent="WIyWlLk6GJQsqaUBKTNV-1">
          <mxGeometry x="870" y="236" width="110" height="40" as="geometry" />
        </mxCell>
        <mxCell id="pAJpSPXuL_mx-AU2gsYE-10" value="Delta Lake" style="rounded=1;whiteSpace=wrap;html=1;fontSize=15;fillColor=#bac8d3;strokeColor=#23445d;" vertex="1" parent="WIyWlLk6GJQsqaUBKTNV-1">
          <mxGeometry x="620" y="488" width="110" height="40" as="geometry" />
        </mxCell>
        <mxCell id="pAJpSPXuL_mx-AU2gsYE-11" value="Iceberg" style="rounded=1;whiteSpace=wrap;html=1;fontSize=15;fillColor=#bac8d3;strokeColor=#23445d;" vertex="1" parent="WIyWlLk6GJQsqaUBKTNV-1">
          <mxGeometry x="760" y="488" width="110" height="40" as="geometry" />
        </mxCell>
      </root>
    </mxGraphModel>
  </diagram>
</mxfile>
